<svg xmlns="http://www.w3.org/2000/svg" viewBox="0 0 1475.63 502.45"><defs><style>.cls-1{fill:#fff;}.cls-2{fill:#333;}.cls-3{fill:#006837;}.cls-4{fill:#009245;}</style></defs><title>blockupFichier 7</title><g id="Calque_2" data-name="Calque 2"><g id="Calque_1-2" data-name="Calque 1"><path class="cls-1" d="M0,145.61V356.84a40,40,0,0,0,20,34.64L202.93,497.09a40,40,0,0,0,40,0L425.85,391.48a40,40,0,0,0,20-34.64V145.61a40,40,0,0,0-20-34.64L242.93,5.36a40,40,0,0,0-40,0L20,111A40,40,0,0,0,0,145.61Z"/><path class="cls-2" d="M27.63,162.44V340.09a40,40,0,0,0,20,34.64l153.85,88.82a40,40,0,0,0,40,0l153.85-88.82a40,40,0,0,0,20-34.64V162.44a40,40,0,0,0-20-34.64L241.48,39a40,40,0,0,0-40,0L47.63,127.8A40,40,0,0,0,27.63,162.44Z"/><path class="cls-3" d="M201.7,464,46.44,374.27C20,359,20,320.75,46.44,305.45L201.7,215.74a39.77,39.77,0,0,1,39.76,0l155.26,89.71c26.48,15.3,26.48,53.52,0,68.82L241.46,464A39.72,39.72,0,0,1,201.7,464Z"/><path class="cls-1" d="M319.07,292.52V226.79a40,40,0,0,0-20-34.64l-56.93-32.87a40,40,0,0,0-40,0l-56.92,32.87a40,40,0,0,0-20,34.64v65.73a40,40,0,0,0,20,34.64L202.14,360a40,40,0,0,0,40,0l56.93-32.87A40,40,0,0,0,319.07,292.52Z"/><path class="cls-4" d="M202.23,286.07,47,196.36c-26.48-15.29-26.48-53.52,0-68.81L202.23,37.84a39.72,39.72,0,0,1,39.76,0l155.26,89.71c26.48,15.29,26.48,53.52,0,68.81L242,286.07A39.72,39.72,0,0,1,202.23,286.07Z"/><path class="cls-1" d="M599.16,339.45H544.48q-11.85,0-16.91-5.31t-5.07-16.9V182.72q0-11.85,5.19-17t16.79-5.19h58a135.16,135.16,0,0,1,22.22,1.59,47.19,47.19,0,0,1,16.84,6.1,44.18,44.18,0,0,1,11.23,9.58,42.27,42.27,0,0,1,7.45,12.82,42.85,42.85,0,0,1,2.56,14.83q0,26.87-26.85,39.31,35.26,11.24,35.27,43.7a49.1,49.1,0,0,1-7.69,27,46.16,46.16,0,0,1-20.75,17.76,73.47,73.47,0,0,1-18.8,4.82A190.89,190.89,0,0,1,599.16,339.45Zm-40.4-151.73V234H592q13.54,0,20.94-2.57a20,20,0,0,0,11.29-9.76,22.08,22.08,0,0,0,3-11.48q0-13.55-9.64-18t-29.42-4.46ZM596.48,260H558.76v52.24H597.7q36.74,0,36.74-26.49,0-13.55-9.52-19.65T596.48,260Z"/><path class="cls-1" d="M700.24,322.24V177.71q0-10,4.45-15.14t12-5.12a15.78,15.78,0,0,1,12.2,5.06q4.65,5.07,4.64,15.2V322.24q0,10.14-4.7,15.2a15.8,15.8,0,0,1-12.14,5.07,15.07,15.07,0,0,1-11.91-5.25Q700.24,332,700.24,322.24Z"/><path class="cls-1" d="M892.74,274.76a78.78,78.78,0,0,1-4.64,27.46,60.66,60.66,0,0,1-13.42,21.61,59.25,59.25,0,0,1-21,13.85,74.12,74.12,0,0,1-27.47,4.83A72,72,0,0,1,799,337.62a60.05,60.05,0,0,1-34.36-35.46,78.56,78.56,0,0,1-4.58-27.4,79.56,79.56,0,0,1,4.64-27.71A60.28,60.28,0,0,1,778,225.56a58.63,58.63,0,0,1,21-13.73,79.51,79.51,0,0,1,54.69.06,59.06,59.06,0,0,1,34.48,35.4A78.89,78.89,0,0,1,892.74,274.76Zm-33.45,0q0-20.38-9-31.74t-24.11-11.35A29.9,29.9,0,0,0,809,236.73q-7.44,5.07-11.47,15t-4,23.07q0,13.07,4,22.82t11.35,15a29.46,29.46,0,0,0,17.39,5.19q15.13,0,24.11-11.42T859.29,274.76Z"/><path class="cls-1" d="M1038.49,301.25a28.75,28.75,0,0,1-3.72,13.3A45.74,45.74,0,0,1,1023.42,328a58.91,58.91,0,0,1-19.23,10.32,81.69,81.69,0,0,1-26.12,3.9q-30.89,0-48.22-18T912.52,276q0-20.51,7.93-36.26a57,57,0,0,1,22.95-24.35q15-8.61,35.89-8.61a71.47,71.47,0,0,1,23.74,3.79,62.08,62.08,0,0,1,18.31,9.76,46.84,46.84,0,0,1,11.48,12.76q4,6.78,4,12.63a13.34,13.34,0,0,1-4.45,10.14,15.3,15.3,0,0,1-10.8,4.15,10.92,10.92,0,0,1-6.9-2.14,33.67,33.67,0,0,1-6.17-6.9q-6.11-9.27-12.75-13.91T978.8,232.4A28.75,28.75,0,0,0,955,243.93q-9,11.53-9,31.56a61.13,61.13,0,0,0,2.32,17.27A39.3,39.3,0,0,0,955,306.19a28.74,28.74,0,0,0,10.62,8.42,32.13,32.13,0,0,0,13.67,2.87q10,0,17.15-4.64t12.63-14.16a32.83,32.83,0,0,1,6.6-8.79,12.54,12.54,0,0,1,8.66-3.17,12.88,12.88,0,0,1,10.14,4.64A14.87,14.87,0,0,1,1038.49,301.25Z"/><path class="cls-1" d="M1141,327.25l-29.42-48.34L1093.55,296v26.49q0,9.64-5.07,14.83a15.84,15.84,0,0,1-11.66,5.19q-7.68,0-12.08-5.13t-4.4-15.14V180.15q0-11.1,4.28-16.9t12.2-5.8q7.7,0,12.21,5.25t4.52,15.5V259L1131,219.7a92.63,92.63,0,0,1,10.62-10,14.65,14.65,0,0,1,8.91-2.68,14.45,14.45,0,0,1,10.38,4,13.2,13.2,0,0,1,4.15,9.95q0,7.34-13.55,19.54l-17.7,16.23L1168,310.4q3.78,6,5.43,9.1a12.66,12.66,0,0,1,1.65,5.92q0,7.93-4.33,12.51a15,15,0,0,1-11.42,4.58q-6.1,0-9.4-3.3T1141,327.25Z"/><path class="cls-4" d="M1281.66,323.71v-4.28a74.22,74.22,0,0,1-12.58,12.7,46.22,46.22,0,0,1-14.4,7.63,58.34,58.34,0,0,1-17.82,2.5,46.18,46.18,0,0,1-21.67-5,36.58,36.58,0,0,1-14.83-13.8q-6.22-10.62-6.23-30.51v-66q0-10,4.52-15a15.44,15.44,0,0,1,12-4.94,15.88,15.88,0,0,1,12.21,5q4.64,5,4.64,14.9v53.34a82.47,82.47,0,0,0,2,19.47,23.35,23.35,0,0,0,7,12.33q5.07,4.45,13.73,4.46a27.91,27.91,0,0,0,15.87-5,29.22,29.22,0,0,0,10.87-13.06q2.8-7.08,2.8-31V226.91q0-9.9,4.64-14.9a15.75,15.75,0,0,1,12.09-5,15.44,15.44,0,0,1,12,4.94q4.52,5,4.52,15v96.55q0,9.53-4.34,14.29a15.42,15.42,0,0,1-22.46-.19Q1281.66,332.63,1281.66,323.71Z"/><path class="cls-4" d="M1376.87,225.68v4q9.41-11.6,19.53-17a47.84,47.84,0,0,1,22.95-5.43,53.12,53.12,0,0,1,28.32,7.94q12.94,7.94,20.45,23.19t7.51,36.13a88.07,88.07,0,0,1-4.34,28.26,63.34,63.34,0,0,1-11.9,21.61,51.93,51.93,0,0,1-17.88,13.43,52.86,52.86,0,0,1-22.16,4.7q-14.28,0-24-5.74t-18.5-16.85V370q0,22-16,22-9.41,0-12.45-5.67t-3-16.54V225.93q0-9.52,4.15-14.22t11.35-4.7a15,15,0,0,1,11.54,4.82Q1376.88,216.66,1376.87,225.68Zm65.31,48.47q0-13.18-4-22.65A33.15,33.15,0,0,0,1427,237a26.69,26.69,0,0,0-15.81-5.07q-13.79,0-23.25,10.86t-9.46,32q0,19.89,9.4,30.94t23.31,11.05a26.85,26.85,0,0,0,15.39-4.82q7.07-4.83,11.35-14.47T1442.18,274.15Z"/></g></g></svg>